<?xml version="1.0" encoding="iso-8859-1"?>
<!-- Generator: Adobe Illustrator 19.0.0, SVG Export Plug-In . SVG Version: 6.00 Build 0)  -->
<svg version="1.1" id="Capa_1" xmlns="http://www.w3.org/2000/svg" xmlns:xlink="http://www.w3.org/1999/xlink" x="0px" y="0px"
	 viewBox="0 0 57.562 57.562" style="enable-background:new 0 0 57.562 57.562;" xml:space="preserve">
<g>
	<g>
		<path d="M56.137,8.627l-21-8c-0.104-0.039-0.212-0.054-0.32-0.058c-0.013,0-0.024-0.007-0.036-0.007h-10c-0.553,0-1,0.447-1,1v55
			c0,0.553,0.447,1,1,1h10c0.106,0,0.213-0.017,0.316-0.052l21-7c0.408-0.136,0.684-0.518,0.684-0.948v-40
			C56.781,9.146,56.525,8.774,56.137,8.627z M25.781,2.562h8v53h-8C25.781,55.562,25.781,2.562,25.781,2.562z M54.781,48.841
			l-19,6.333V3.013l19,7.238V48.841z"/>
		<path d="M11.781,36.562c0-2.206-1.794-4-4-4s-4,1.794-4,4s1.794,4,4,4S11.781,38.768,11.781,36.562z M7.781,38.562
			c-1.103,0-2-0.897-2-2s0.897-2,2-2s2,0.897,2,2S8.883,38.562,7.781,38.562z"/>
		<rect x="4.781" y="6.562" width="2" height="2"/>
		<rect x="8.781" y="6.562" width="2" height="2"/>
		<rect x="8.781" y="10.562" width="2" height="2"/>
		<rect x="4.781" y="10.562" width="2" height="2"/>
		<rect x="4.781" y="14.562" width="2" height="2"/>
		<rect x="8.781" y="14.562" width="2" height="2"/>
		<rect x="4.781" y="18.562" width="2" height="2"/>
		<rect x="8.781" y="18.562" width="2" height="2"/>
		<rect x="8.781" y="22.562" width="2" height="2"/>
		<rect x="4.781" y="22.562" width="2" height="2"/>
		<rect x="4.781" y="26.562" width="2" height="2"/>
		<rect x="8.781" y="26.562" width="2" height="2"/>
		<path d="M29.781,45.562c0.553,0,1-0.447,1-1v-34c0-0.553-0.447-1-1-1s-1,0.447-1,1v34C28.781,45.114,29.228,45.562,29.781,45.562z
			"/>
		<path d="M29.781,47.562c-1.654,0-3,1.346-3,3s1.346,3,3,3s3-1.346,3-3S31.435,47.562,29.781,47.562z M29.781,51.562
			c-0.552,0-1-0.448-1-1s0.448-1,1-1s1,0.448,1,1S30.333,51.562,29.781,51.562z"/>
		<path d="M16.805,50.562c-0.195-0.014-3.579-0.333-6.954-4.039c2.77-0.315,4.93-2.67,4.93-5.523V5.562
			C14.781,2.495,12.286,0,9.219,0H6.342C3.276,0,0.781,2.495,0.781,5.562V41c0,3.066,2.495,5.562,5.562,5.562h0.485
			c0.213,2.552,1.549,9.904,9.796,9.999c0.013,0,0.025,0,0.038,0c1.545,0,2.868-1.088,3.086-2.546
			c0.129-0.872-0.124-1.751-0.695-2.412C18.487,50.947,17.669,50.568,16.805,50.562z M2.781,41V5.562C2.781,3.598,4.378,2,6.342,2
			h2.877c1.964,0,3.562,1.598,3.562,3.562V41c0,1.964-1.598,3.562-3.562,3.562H6.342C4.378,44.562,2.781,42.964,2.781,41z
			 M16.661,54.561c-0.004,0-0.009,0-0.014,0c-4.795-0.055-6.678-3.159-7.411-5.794c3.838,3.678,7.503,3.795,7.545,3.795
			c0.291,0,0.567,0.127,0.758,0.348c0.193,0.224,0.275,0.513,0.23,0.812C17.699,54.194,17.213,54.561,16.661,54.561z"/>
	</g>
</g>
<g>
</g>
<g>
</g>
<g>
</g>
<g>
</g>
<g>
</g>
<g>
</g>
<g>
</g>
<g>
</g>
<g>
</g>
<g>
</g>
<g>
</g>
<g>
</g>
<g>
</g>
<g>
</g>
<g>
</g>
</svg>
