<?xml version="1.0" encoding="iso-8859-1"?>
<!-- Generator: Adobe Illustrator 18.0.0, SVG Export Plug-In . SVG Version: 6.00 Build 0)  -->
<!DOCTYPE svg PUBLIC "-//W3C//DTD SVG 1.1//EN" "http://www.w3.org/Graphics/SVG/1.1/DTD/svg11.dtd">
<svg version="1.1" id="Capa_1" xmlns="http://www.w3.org/2000/svg" xmlns:xlink="http://www.w3.org/1999/xlink" x="0px" y="0px"
	 viewBox="0 0 393.18 393.18" style="enable-background:new 0 0 393.18 393.18;" xml:space="preserve">
<g>
	<path style="stroke:#000000;stroke-width:0.2;stroke-miterlimit:10;" d="M277.016,91.095H48.572
		c-10.003,0-18.142,8.139-18.142,18.142V337.68c0,10.003,8.138,18.142,18.142,18.142h228.444c10.003,0,18.142-8.139,18.142-18.142
		v-69.44v-97.335v-61.668C295.157,99.234,287.019,91.095,277.016,91.095z M290.157,268.239c0,2.74-2.229,4.969-4.969,4.969h-23.811
		c-2.74,0-4.969-2.229-4.969-4.969v-97.335c0-2.74,2.229-4.97,4.969-4.97h23.811c2.74,0,4.969,2.229,4.969,4.97V268.239z
		 M290.157,162.275c-1.465-0.847-3.159-1.34-4.969-1.34h-23.811c-5.497,0-9.969,4.473-9.969,9.97v97.335
		c0,5.497,4.472,9.969,9.969,9.969h23.811c1.81,0,3.504-0.493,4.969-1.339v60.811c0,7.246-5.896,13.142-13.142,13.142H48.572
		c-7.246,0-13.142-5.896-13.142-13.142V109.236c0-7.246,5.896-13.142,13.142-13.142h228.444c7.246,0,13.142,5.896,13.142,13.142
		V162.275z"/>
	<path style="stroke:#000000;stroke-width:0.2;stroke-miterlimit:10;" d="M106.844,213.21c-35.665,0-64.68,29.016-64.68,64.681
		c0,35.664,29.016,64.68,64.68,64.68s64.68-29.016,64.68-64.68C171.524,242.226,142.509,213.21,106.844,213.21z M106.844,337.57
		c-32.908,0-59.68-26.772-59.68-59.68c0-32.908,26.772-59.681,59.68-59.681s59.68,26.772,59.68,59.681
		C166.524,310.798,139.752,337.57,106.844,337.57z"/>
	<path style="stroke:#000000;stroke-width:0.2;stroke-miterlimit:10;" d="M106.844,221.555c-31.063,0-56.335,25.272-56.335,56.336
		s25.272,56.335,56.335,56.335s56.335-25.271,56.335-56.335S137.907,221.555,106.844,221.555z M64.298,306.588
		c-5.547-8.198-8.79-18.076-8.79-28.697c0-10.622,3.243-20.501,8.791-28.699c5.742,8.48,8.77,18.331,8.77,28.703
		C73.07,288.26,70.041,298.109,64.298,306.588z M104.348,329.162c-14.79-0.711-27.953-7.712-36.879-18.378
		c6.938-9.614,10.6-20.941,10.6-32.89c0-11.957-3.661-23.286-10.598-32.9c8.925-10.665,22.088-17.665,36.877-18.376v30.81
		c-10.2,1.238-18.133,9.934-18.133,20.462s7.933,19.225,18.133,20.462V329.162z M91.215,277.891c0-8.618,7.011-15.629,15.629-15.629
		s15.629,7.011,15.629,15.629s-7.011,15.629-15.629,15.629S91.215,286.509,91.215,277.891z M109.348,329.162v-30.81
		c10.196-1.242,18.125-9.936,18.125-20.461s-7.929-19.219-18.125-20.461v-30.811c27.148,1.311,48.831,23.806,48.831,51.272
		S136.496,327.851,109.348,329.162z"/>
	<path style="stroke:#000000;stroke-width:0.2;stroke-miterlimit:10;" d="M106.844,201.344c24.475,0,44.387-19.912,44.387-44.387
		s-19.912-44.387-44.387-44.387s-44.387,19.912-44.387,44.387S82.369,201.344,106.844,201.344z M106.844,117.57
		c21.718,0,39.387,17.669,39.387,39.387s-17.669,39.387-39.387,39.387s-39.387-17.669-39.387-39.387S85.126,117.57,106.844,117.57z"
		/>
	<path style="stroke:#000000;stroke-width:0.2;stroke-miterlimit:10;" d="M106.844,191.389c18.986,0,34.432-15.446,34.432-34.432
		s-15.446-34.431-34.432-34.431s-34.432,15.445-34.432,34.431S87.858,191.389,106.844,191.389z M106.844,127.526
		c16.229,0,29.432,13.202,29.432,29.431s-13.203,29.432-29.432,29.432s-29.432-13.203-29.432-29.432S90.615,127.526,106.844,127.526
		z"/>
	<path style="stroke:#000000;stroke-width:0.2;stroke-miterlimit:10;" d="M106.844,172.818c8.746,0,15.861-7.115,15.861-15.861
		c0-8.745-7.115-15.86-15.861-15.86s-15.861,7.115-15.861,15.86C90.983,165.703,98.098,172.818,106.844,172.818z M106.844,146.097
		c5.989,0,10.861,4.872,10.861,10.86c0,5.989-4.872,10.861-10.861,10.861s-10.861-4.872-10.861-10.861
		C95.983,150.969,100.855,146.097,106.844,146.097z"/>
	<path style="stroke:#000000;stroke-width:0.2;stroke-miterlimit:10;" d="M280.401,168.28h-14.236c-3.826,0-6.938,3.112-6.938,6.938
		v66.428c0,3.826,3.113,6.938,6.938,6.938h14.236c3.826,0,6.939-3.112,6.939-6.938v-66.428
		C287.34,171.393,284.227,168.28,280.401,168.28z M282.34,241.647c0,1.069-0.87,1.938-1.939,1.938h-14.236
		c-1.069,0-1.938-0.869-1.938-1.938v-66.428c0-1.069,0.87-1.938,1.938-1.938h14.236c1.069,0,1.939,0.869,1.939,1.938V241.647z"/>
	<path style="stroke:#000000;stroke-width:0.2;stroke-miterlimit:10;" d="M280.401,251.926h-14.236
		c-3.826,0-6.938,3.113-6.938,6.939v3.854c0,3.826,3.113,6.938,6.938,6.938h14.236c3.826,0,6.939-3.112,6.939-6.938v-3.854
		C287.34,255.039,284.227,251.926,280.401,251.926z M282.34,262.72c0,1.069-0.87,1.938-1.939,1.938h-14.236
		c-1.069,0-1.938-0.869-1.938-1.938v-3.854c0-1.069,0.87-1.939,1.938-1.939h14.236c1.069,0,1.939,0.87,1.939,1.939V262.72z"/>
	<path style="stroke:#000000;stroke-width:0.2;stroke-miterlimit:10;" d="M248.999,325.603v9.488c0,3.826,3.113,6.938,6.939,6.938
		h24.462c3.826,0,6.939-3.112,6.939-6.938v-9.488c0-3.826-3.113-6.938-6.939-6.938h-24.462
		C252.112,318.664,248.999,321.776,248.999,325.603z M253.999,325.603c0-1.069,0.87-1.938,1.939-1.938h24.462
		c1.069,0,1.939,0.869,1.939,1.938v9.488c0,1.069-0.87,1.938-1.939,1.938h-24.462c-1.069,0-1.939-0.869-1.939-1.938V325.603z"/>
	<path style="stroke:#000000;stroke-width:0.2;stroke-miterlimit:10;" d="M385.024,154.89v-3.816h-29.115v3.816h-22.637v-4.318
		h-28.5v-1.909h34.148V87.343h10.761V35.706h-16.228l-0.032,0.075l-8.76,0.392l-0.176-8.428l-40.832,0.852l0.196,9.401
		L64.923,47.789L31.269,42.18c-2.726-0.455-5.459,0.623-7.147,2.797c-1.426,1.836-1.913,4.183-1.337,6.439l3.887,15.224
		c1.783,6.984,6.266,12.69,12.15,16.165c-10.446,3.456-18.006,13.307-18.006,24.896v75.981c-4.939,1.139-8.637,5.563-8.637,10.843
		v53.546c0,5.28,3.698,9.705,8.637,10.843v36.172h-4.201v-4.605h-2.5c-7.728,0-14.015,6.287-14.015,14.015v15.546
		c0,7.729,6.287,14.016,14.015,14.016h2.5v-4.606h4.201v9.764c0,14.459,11.763,26.222,26.221,26.222h231.514
		c14.458,0,26.222-11.763,26.222-26.222v-13.506h28.5v-11.228h21.268v-55.655h-21.268v-36.755h22.637v3.815h29.115v-3.815h8.056
		V154.89H385.024z M11.615,328.705c-3.759-1.087-6.515-4.559-6.515-8.663v-15.546c0-4.104,2.756-7.575,6.515-8.662V328.705z
		 M20.816,324.451h-4.201v-24.364h4.201V324.451z M20.816,253.676c-2.142-0.959-3.637-3.11-3.637-5.604v-53.546
		c0-2.494,1.495-4.645,3.637-5.604V253.676z M333.921,143.662h-29.148v-10.546h29.148V143.662z M333.921,128.116h-29.148v-17.455
		h29.148V128.116z M336.782,40.706h7.899v41.637h-7.899C331.55,69.023,331.55,54.027,336.782,40.706z M319.591,32.848l0.015,3.551
		l-30.831,1.379l-0.018-4.287L319.591,32.848z M31.516,65.403L27.63,50.18c-0.262-1.026,0.164-1.778,0.441-2.136
		c0.478-0.615,1.188-0.969,1.949-0.969c0.141,0,0.285,0.013,0.428,0.036l31.823,5.305V81.48H52.214
		C42.444,81.48,33.933,74.868,31.516,65.403z M299.772,146.162v4.409v175.138v13.506c0,11.702-9.52,21.222-21.222,21.222H47.037
		c-11.701,0-21.221-9.52-21.221-21.222v-9.764h0.012v-34.364h-0.012v-35.879V183.39v-75.688c0-11.702,9.52-21.222,21.221-21.222
		h5.177H67.27h211.28c11.702,0,21.222,9.52,21.222,21.222V146.162z M67.435,81.48c1.241-10.303,10.021-18.318,20.653-18.318h181.02
		c16.387,0,29.812,12.921,30.625,29.109c-4.773-6.535-12.488-10.791-21.182-10.791H67.435z M269.108,58.161H88.089
		c-8.537,0-16.115,4.167-20.818,10.571V52.689L331.4,40.875c-4.926,13.951-4.703,29.399,0.693,43.206
		c0.455,1.165,1.087,2.253,1.828,3.262v18.318h-29.148V93.825C304.772,74.129,288.805,58.161,269.108,58.161z M328.272,258.826
		v55.655v6.228h-23.5v-68.41h23.5V258.826z M328.272,222.071v25.228h-23.5v-91.728h23.5V222.071z M344.5,263.826h5.04v45.655h-5.04
		V263.826z M339.5,263.826v45.655h-6.228v-45.655H339.5z M339.5,217.071h-6.228V159.89h6.228V217.071z M355.909,217.071H344.5
		V159.89h11.409V217.071z M362.732,220.887h-1.823v-64.813h1.823V220.887z M380.024,220.887h-12.292v-64.813h12.292V220.887z
		 M388.08,217.071h-3.056V159.89h3.056V217.071z"/>
</g>
<g>
</g>
<g>
</g>
<g>
</g>
<g>
</g>
<g>
</g>
<g>
</g>
<g>
</g>
<g>
</g>
<g>
</g>
<g>
</g>
<g>
</g>
<g>
</g>
<g>
</g>
<g>
</g>
<g>
</g>
</svg>
